<?xml version="1.0" encoding="UTF-8" standalone="no"?>
<svg
   viewBox="0 0 597.04102 800.00003"
   id="svg100"
   height="800"
   width="597.04102"
   version="1.1"
   inkscape:version="1.2 (dc2aeda, 2022-05-15)"
   sodipodi:docname="Ligue_de_Football_d'Occitanie.svg"
   xml:space="preserve"
   xmlns:inkscape="http://www.inkscape.org/namespaces/inkscape"
   xmlns:sodipodi="http://sodipodi.sourceforge.net/DTD/sodipodi-0.dtd"
   xmlns:xlink="http://www.w3.org/1999/xlink"
   xmlns="http://www.w3.org/2000/svg"
   xmlns:svg="http://www.w3.org/2000/svg"
   xmlns:rdf="http://www.w3.org/1999/02/22-rdf-syntax-ns#"
   xmlns:cc="http://creativecommons.org/ns#"
   xmlns:dc="http://purl.org/dc/elements/1.1/"><sodipodi:namedview
     pagecolor="#ffffff"
     bordercolor="#666666"
     borderopacity="1"
     objecttolerance="10"
     gridtolerance="10"
     guidetolerance="10"
     inkscape:pageopacity="0"
     inkscape:pageshadow="2"
     inkscape:window-width="1920"
     inkscape:window-height="1080"
     id="namedview58"
     showgrid="false"
     inkscape:zoom="0.38952716"
     inkscape:cx="1165.5156"
     inkscape:cy="800.9711"
     inkscape:window-x="0"
     inkscape:window-y="0"
     inkscape:window-maximized="0"
     inkscape:current-layer="svg100"
     inkscape:showpageshadow="2"
     inkscape:pagecheckerboard="0"
     inkscape:deskcolor="#d1d1d1"
     showguides="true" /><metadata
     id="metadata106"><rdf:RDF><cc:Work
         rdf:about=""><dc:format>image/svg+xml</dc:format><dc:type
           rdf:resource="http://purl.org/dc/dcmitype/StillImage" /><dc:title /></cc:Work></rdf:RDF></metadata><defs
     id="defs104"><linearGradient
       inkscape:collect="always"
       id="linearGradient8427"><stop
         style="stop-color:#f0e7b5;stop-opacity:1"
         offset="0"
         id="stop8423" /><stop
         style="stop-color:#ecdeae;stop-opacity:1"
         offset="0.13450326"
         id="stop8431" /><stop
         style="stop-color:#ceb389;stop-opacity:1"
         offset="0.36367363"
         id="stop8433" /><stop
         style="stop-color:#d7be92;stop-opacity:1"
         offset="0.61458516"
         id="stop8435" /><stop
         style="stop-color:#e2ce9e;stop-opacity:1"
         offset="0.81823146"
         id="stop8437" /><stop
         style="stop-color:#e2ce9e;stop-opacity:1"
         offset="1"
         id="stop8425" /></linearGradient><linearGradient
       inkscape:collect="always"
       id="linearGradient6716"><stop
         style="stop-color:#dfca9b;stop-opacity:1"
         offset="0"
         id="stop6712" /><stop
         style="stop-color:#bb9b78;stop-opacity:1"
         offset="1"
         id="stop6714" /></linearGradient><linearGradient
       inkscape:collect="always"
       xlink:href="#linearGradient6716"
       id="linearGradient6718"
       x1="-942.13818"
       y1="648.06036"
       x2="-693.44275"
       y2="459.26968"
       gradientUnits="userSpaceOnUse" /><linearGradient
       inkscape:collect="always"
       xlink:href="#linearGradient8427"
       id="linearGradient8429"
       x1="-1278.4731"
       y1="12.836076"
       x2="-367.11176"
       y2="1270.7715"
       gradientUnits="userSpaceOnUse" /></defs><g
     id="g14493"
     transform="matrix(0.61690783,0,0,0.61690783,801.22693,-0.55567834)"
     style="stroke-width:1.62099"><path
       id="path2160"
       style="fill:url(#linearGradient8429);fill-opacity:1;stroke:none;stroke-width:0.324198;stroke-linecap:butt;stroke-linejoin:miter;stroke-dasharray:none;stroke-opacity:1"
       d="M -814.88094,0.90082523 C -853.74236,0.86440253 -890.29767,13.672537 -925.47275,34.174268 L -1298.779,249.96685 v 538.20529 c 0.051,101.83483 46.8974,191.79671 127.9955,256.64446 l 355.90256,252.8743 355.90256,-252.8743 c 81.09813,-64.84775 127.94499,-154.80963 127.99551,-256.64446 V 249.96685 L -704.28913,34.174268 C -739.46421,13.672537 -776.01952,0.86440253 -814.88094,0.90082523 Z" /><path
       id="path2155"
       style="fill:#ffffff;stroke:none;stroke-width:0.324198;stroke-linecap:butt;stroke-linejoin:miter;stroke-dasharray:none;stroke-opacity:1"
       d="m -814.8812,52.396484 c -35.77504,-0.03353 -69.42712,11.75738 -101.80859,30.63086 L -1260.348,281.68164 v 495.46094 c 0.046,93.74709 43.1728,176.56418 117.8301,236.26172 l 327.6367,232.791 327.63672,-232.791 c 74.6573,-59.69754 117.78358,-142.51463 117.83008,-236.26172 V 281.68164 L -713.07261,83.027344 c -32.38147,-18.87348 -66.03355,-30.66439 -101.80859,-30.63086 z" /><path
       id="path2162"
       style="fill:#a2192a;fill-opacity:1;stroke:#ff0000;stroke-width:0.324198;stroke-linecap:butt;stroke-linejoin:miter;stroke-dasharray:none;stroke-opacity:1"
       d="m -814.8812,501.44336 c -47.40759,0.17813 -278.289,10.73648 -415.5996,47.78711 v 219.3418 c 0.043,87.46179 40.2781,164.72677 109.9297,220.42187 l 305.6699,217.18356 305.66992,-217.18356 c 69.65157,-55.6951 109.88631,-132.96008 109.92969,-220.42187 V 549.23047 C -536.59182,512.17944 -767.47339,501.6215 -814.8812,501.44336 Z" /><path
       id="path2106"
       style="fill:#e0ca9a;fill-opacity:1;stroke:none;stroke-width:0.324198;stroke-linecap:butt;stroke-linejoin:miter;stroke-dasharray:none;stroke-opacity:1"
       d="m -814.8812,453.44336 c -47.40759,0.17813 -278.289,10.73648 -415.5996,47.78711 v 18 c 137.3106,-37.05063 368.19201,-47.60898 415.5996,-47.78711 47.40781,0.17814 278.28938,10.73608 415.59961,47.78711 v -18 C -536.59182,464.17944 -767.47339,453.6215 -814.8812,453.44336 Z" /></g><g
     id="g3795"
     transform="matrix(0.61690783,0,0,0.61690783,801.22693,-0.55567834)"
     style="stroke-width:1.62099"><path
       style="fill:#a2192a;fill-opacity:1;stroke:none;stroke-width:0.162099;stroke-linecap:butt;stroke-linejoin:miter;stroke-dasharray:none;stroke-opacity:1"
       d="m -1113.0704,233.01788 41.8403,-5.66453 15.7061,128.22421 c 34.6309,-3.99181 69.2617,-7.33562 103.89253,-10.29914 l 2.44605,31.02614 c -47.20296,4.12947 -94.36268,8.56174 -141.22688,15.06248 z"
       id="path3237"
       sodipodi:nodetypes="ccccccc" /><path
       style="fill:#a2192a;fill-opacity:1;stroke:none;stroke-width:0.162099;stroke-linecap:butt;stroke-linejoin:miter;stroke-dasharray:none;stroke-opacity:1"
       d="m -911.85107,373.85852 -8.49678,-159.89404 c 57.64785,-2.47709 115.55124,-2.65439 173.54039,-2.05982 l -0.77244,31.15487 c -43.47034,-1.19688 -86.77078,-1.03459 -129.89781,0.51496 l 1.41613,37.72057 c 35.92066,-0.93678 72.13914,-0.9801 108.39837,-0.90117 l -0.51495,29.48127 c -35.88629,-0.51597 -71.56769,-0.21235 -107.11098,0.64369 l 2.44604,61.66606 z"
       id="path3251"
       sodipodi:nodetypes="ccccccccccc" /><path
       id="rect3482"
       style="fill:#a2192a;fill-opacity:1;stroke:none;stroke-width:0.162099;stroke-linecap:round;stroke-linejoin:round"
       d="m -720.53283,292.4375 c -2.29443,44.43255 33.45313,82.36622 95.83889,88.95669 58.17436,6.14558 109.70868,-18.09097 117.26868,-74.47621 5.49485,-40.98253 -33.93626,-82.38456 -96.61328,-88.69726 -70.86643,-7.13754 -114.04394,26.76473 -116.49429,74.21678 z m 112.51367,-43.09961 c 38.14684,3.41388 65.71235,29.92263 59.72099,57.65341 -8.6115,39.85795 -43.63609,45.92242 -72.00859,43.57311 -36.08701,-3.02766 -67.49946,-31.05372 -59.02302,-63.13414 8.60515,-32.85284 39.71179,-40.74608 71.31062,-38.09238 z"
       sodipodi:nodetypes="ssssscsccc" /></g><g
     id="g14449"
     transform="matrix(0.61690783,0,0,0.61690783,801.22693,-0.55567834)"
     style="stroke-width:1.62099"><path
       id="path2078"
       style="fill:#ffffff;stroke:none;stroke-width:0.162099;stroke-linecap:butt;stroke-linejoin:miter;stroke-dasharray:none;stroke-opacity:1"
       d="m -814.88106,364.63206 c -3.07097,-0.0901 -6.16664,1.38264 -9.0142,3.14248 l -129.31622,74.38186 c -7.30237,3.49402 -12.3997,7.48584 -12.41552,18.70956 v 151.30905 c 0.0158,11.22373 5.11315,15.21555 12.41552,18.70956 l 129.31622,74.38186 c 2.84756,1.75985 5.94323,3.23257 9.0142,3.14248 3.07097,0.0901 6.16664,-1.38263 9.0142,-3.14248 l 129.31622,-74.38186 c 7.30237,-3.49401 12.39971,-7.48583 12.41552,-18.70956 V 460.86596 c -0.0158,-11.22372 -5.11315,-15.21554 -12.41552,-18.70956 l -129.31622,-74.38186 c -2.84756,-1.75984 -5.94323,-3.23258 -9.0142,-3.14248 z"
       sodipodi:nodetypes="ccccccccccccccc" /><path
       id="path708"
       style="fill:url(#linearGradient6718);fill-opacity:1;stroke:none;stroke-width:0.162099;stroke-linecap:butt;stroke-linejoin:miter;stroke-dasharray:none;stroke-opacity:1"
       d="m -814.88134,388.66406 c -2.64161,-0.0775 -5.30433,1.18933 -7.75377,2.70313 l -111.23632,63.98242 c -6.28142,3.00551 -10.66608,6.43923 -10.67969,16.09375 v 130.1543 c 0.0136,9.65452 4.39827,13.08824 10.67969,16.09375 l 111.23632,63.98242 c 2.44944,1.5138 5.1123,2.78062 7.75391,2.70312 2.64161,0.0775 5.30447,-1.18932 7.75391,-2.70312 l 111.23633,-63.98242 c 6.28141,-3.00551 10.66608,-6.43923 10.67968,-16.09375 v -130.1543 c -0.0136,-9.65452 -4.39827,-13.08824 -10.67968,-16.09375 l -111.23633,-63.98242 c -2.44944,-1.5138 -5.11244,-2.78063 -7.75405,-2.70313 z"
       sodipodi:nodetypes="ccccccccccccccc" /><g
       id="g4001"
       transform="translate(-1300.0001)"
       style="stroke-width:1.62099"><path
         style="color:#000000;fill:#ffffff;stroke-width:1.62099;-inkscape-stroke:none"
         d="m 479.23437,438.89453 c -5.20494,8.65825 -16.77412,18.92225 -27.79882,24.75977 l -6.20313,3.28515 3.52344,6.06836 c 8.60348,14.82446 13.00625,29.55486 14.02734,44.43555 -15.68658,-1.1374 -30.14626,-6.37457 -44.29297,-14.32813 l -5.83984,-3.2832 -3.32617,5.81641 c -5.6936,9.9542 -12.3844,19.18083 -20.33399,25.40625 l -6.78711,5.31445 6.78711,5.31445 c 7.94959,6.22541 14.64039,15.45401 20.33399,25.40821 l 3.32617,5.8164 5.83984,-3.28515 c 14.14671,-7.95356 28.60639,-13.18878 44.29297,-14.32618 -1.02122,14.88039 -5.42403,29.60944 -14.02734,44.4336 l -3.52344,6.07031 6.20313,3.2832 c 11.0247,5.83752 22.59388,16.10152 27.79882,24.75977 l 11.57032,-6.95508 c -6.09443,-10.13787 -16.35213,-19.41381 -27.40039,-26.29101 8.82259,-17.08679 13.42758,-34.61139 13.31836,-52.33204 l -0.041,-6.65625 -6.65625,-0.0527 c -18.99092,-0.14887 -36.23437,5.20367 -52.30664,13.38281 -4.13343,-6.62708 -8.87184,-13.00608 -14.51563,-18.57031 5.64379,-5.56423 10.3822,-11.94128 14.51563,-18.56836 16.07214,8.17902 33.3159,13.52973 52.30664,13.38086 l 6.65625,-0.0508 0.041,-6.65625 c 0.10922,-17.72042 -4.496,-35.24545 -13.31836,-52.33203 11.04826,-6.8772 21.30596,-16.15315 27.40039,-26.29102 z"
         id="path3875" /><path
         id="rect3963"
         style="fill:#ffffff;stroke-width:21.8833;stroke-linecap:round;stroke-linejoin:round"
         d="m 492.30286,466.36978 h 13.5 v 140 h -13.5 z" /><path
         id="rect3965"
         style="fill:#ffffff;stroke-width:21.8833;stroke-linecap:round;stroke-linejoin:round"
         d="m 518.15601,476.68365 h 13.5 v 119.37227 h -13.5 z" /><path
         id="rect3967"
         style="fill:#ffffff;stroke-width:21.8833;stroke-linecap:round;stroke-linejoin:round"
         d="m 544.00922,498.98657 h 13.5 v 74.76642 h -13.5 z" /></g></g><g
     id="g6625"
     transform="matrix(0.61690783,0,0,0.61690783,801.22693,-0.55567834)"
     style="stroke-width:1.62099"><path
       style="fill:#ffffff;stroke:none;stroke-width:0.162099;stroke-linecap:butt;stroke-linejoin:miter;stroke-dasharray:none;stroke-opacity:1"
       d="m -792.35825,1000.8095 0.40965,1.1379 c -35.80233,14.4471 -77.62668,27.3552 -116.70345,39.417 -25.2596,-28.1705 -41.57262,-56.67815 -59.30757,-85.06975 l 1.09239,-0.54619 c 20.07944,25.09503 40.33828,50.53624 61.35579,74.64654 37.26813,-11.8401 75.59471,-20.8618 113.15319,-29.5855 z"
       id="path4023"
       sodipodi:nodetypes="ccccccc" /><path
       style="fill:#ffffff;stroke:none;stroke-width:0.162099;stroke-linecap:butt;stroke-linejoin:miter;stroke-dasharray:none;stroke-opacity:1"
       d="m -882.79887,1123.8852 c -0.19735,17.109 2.9769,32.6304 5.18884,49.0664 l 6.91846,1.2745 c -1.12959,-14.5468 -2.56666,-28.5401 -2.54891,-45.1521 19.0959,-11.5764 37.92775,-22.9031 55.36981,-32.9151 14.70921,-8.4433 29.43137,-17.2261 40.48724,-21.8863 l -0.18207,-1.2745 c -32.76848,8.3797 -68.03465,27.032 -105.23337,50.8871 z"
       id="path4837"
       sodipodi:nodetypes="ccccsccc" /><path
       id="path5612"
       style="fill:#ffffff;stroke:none;stroke-width:0.162099;stroke-linecap:butt;stroke-linejoin:miter;stroke-dasharray:none;stroke-opacity:1"
       d="m -922.21875,803.61133 c -0.48883,4.7e-4 -1.00907,0.0124 -1.5,0.0137 a 246.15101,246.15101 0 0 0 -14.11914,7.71094 l 0.10937,6.41992 c 8.55827,-0.14749 16.70117,-0.15373 24.625,-0.0781 -51.5219,40.62623 -82.02979,86.01848 -100.44918,136.16993 l -45.5938,46.72468 a 246.15101,246.15101 0 0 0 -1.6621,23.2441 246.15101,246.15101 0 0 0 2.1309,29.1074 l 131.81832,93.6582 13.85743,-12.0234 -0.33789,-39.4648 c 48.68289,-21.7337 97.74842,-43.2266 144.48046,-63.4825 47.48359,21.2178 108.2886,67.9099 116.58008,78.5547 l 81.85742,-59.5605 a 246.15101,246.15101 0 0 0 1.91602,-26.7891 246.15101,246.15101 0 0 0 -113.96289,-207.56058 c -25.28571,2.48389 -57.9807,7.55088 -73.87891,13.01172 -42.19428,-16.00039 -87.5338,-24.45384 -150.81054,-25.53711 -4.91002,-0.0841 -9.92782,-0.12385 -15.06055,-0.11914 z m 31.69141,14.60547 c 51.63056,2.07411 89.99081,9.65724 125.88672,22.88281 10.89556,57.66208 0.66263,121.21006 -10.4961,177.97459 -46.41004,20.1186 -95.10508,41.4507 -143.45508,63.0332 l -0.33789,-0.8281 c -32.27215,-36.309 -59.92159,-76.9984 -80.70703,-124.18946 l -0.18164,-0.0469 c 19.2643,-51.70769 51.53622,-97.35569 109.29102,-138.82617 z m 278.82226,114.13672 c 7.35249,21.97087 14.32642,46.82749 19.75391,83.47658 -19.69193,19.1077 -40.70088,36.0736 -64.26758,48.8847 l -0.72852,-0.9101 55.07422,-51.1602 c -3.54381,-27.15335 -7.2292,-53.74475 -11.01562,-79.9277 z" /><path
       id="circle6566"
       style="fill:#ffffff;fill-opacity:1;stroke:none;stroke-width:22.6938;stroke-linecap:round;stroke-linejoin:round;stroke-dasharray:none"
       d="m -814.65625,770.22461 a 253.59164,253.59164 0 0 0 -253.59175,253.59179 253.59164,253.59164 0 0 0 1.4082,19.6758 l 15.4882,11.0058 a 238.88983,238.88983 0 0 1 -2.1953,-30.6816 238.88983,238.88983 0 0 1 238.89065,-238.89062 238.88983,238.88983 0 0 1 238.88867,238.89062 238.88983,238.88983 0 0 1 -2.16992,30.3457 l 16.08789,-11.4316 a 253.59164,253.59164 0 0 0 0.7832,-18.9141 253.59164,253.59164 0 0 0 -253.58984,-253.59179 z" /></g></svg>
